<svg xmlns="http://www.w3.org/2000/svg" version="1.1" xmlns:xlink="http://www.w3.org/1999/xlink" xmlns:svgjs="http://svgjs.com/svgjs" width="1440" height="560" preserveAspectRatio="none" viewBox="0 0 1440 560"><g mask="url(&quot;#SvgjsMask1000&quot;)" fill="none"><rect width="1440" height="560" x="0" y="0" fill="rgba(241, 185, 8, 1)"></rect><path d="M1464 560L0 560 L0 281.11Q37.23 246.34, 72 283.57Q113.42 252.99, 144 294.41Q213.16 291.57, 216 360.72Q248.66 273.38, 336 306.04Q389.6 239.64, 456 293.25Q552.81 270.06, 576 366.88Q581.51 300.39, 648 305.9Q698.58 236.48, 768 287.05Q850.14 249.19, 888 331.33Q970.96 294.29, 1008 377.25Q1009.78 307.03, 1080 308.82Q1102.85 259.67, 1152 282.52Q1195.66 254.19, 1224 297.85Q1313.57 267.42, 1344 356.99Q1381.17 274.16, 1464 311.34z" fill="rgba(221, 156, 28, 1)"></path><path d="M1560 560L0 560 L0 393.95Q25.27 347.22, 72 372.49Q161.54 342.03, 192 431.57Q242.43 362, 312 412.42Q364.06 392.48, 384 444.53Q405.81 346.34, 504 368.15Q555.09 299.24, 624 350.32Q726.39 332.71, 744 435.1Q789.91 361.01, 864 406.92Q888.75 359.68, 936 384.43Q1025.3 353.73, 1056 443.02Q1074.43 341.45, 1176 359.89Q1217.66 329.56, 1248 371.22Q1315.8 367.01, 1320 434.81Q1371.89 366.71, 1440 418.6Q1483.85 342.45, 1560 386.3z" fill="rgba(220, 143, 9, 1)"></path><path d="M1536 560L0 560 L0 469.11Q82.3 431.41, 120 513.7Q174.78 448.48, 240 503.26Q270.75 414, 360 444.75Q434.58 399.33, 480 473.91Q532.64 454.56, 552 507.2Q563.69 446.89, 624 458.59Q650.13 412.71, 696 438.84Q777.04 399.88, 816 480.91Q861.35 406.26, 936 451.61Q982.23 377.84, 1056 424.07Q1136.15 384.23, 1176 464.38Q1246.99 415.37, 1296 486.35Q1361.91 432.26, 1416 498.17Q1453.09 415.26, 1536 452.35z" fill="rgba(228, 192, 25, 1)"></path><path d="M1464 560L0 560 L0 571.28Q8.11 507.39, 72 515.5Q99.97 471.47, 144 499.44Q218.01 453.45, 264 527.46Q320.17 511.63, 336 567.81Q361.89 521.7, 408 547.59Q445.14 464.74, 528 501.88Q569.65 471.53, 600 513.18Q693.03 486.21, 720 579.25Q768.26 507.51, 840 555.78Q863.41 507.19, 912 530.6Q934.61 481.21, 984 503.81Q1037.39 437.2, 1104 490.59Q1188.85 455.43, 1224 540.28Q1293.76 490.04, 1344 559.81Q1370.62 466.43, 1464 493.05z" fill="white"></path></g><defs><mask id="SvgjsMask1000"><rect width="1440" height="560" fill="#ffffff"></rect></mask></defs></svg>