<svg height="512" viewBox="0 0 152 152" width="512" xmlns="http://www.w3.org/2000/svg"><g id="Layer_2" data-name="Layer 2"><g id="_01.facebook" data-name="01.facebook"><circle id="background" cx="76" cy="76" fill="#334c8c" r="76"/><path id="icon" d="m95.26 68.81-1.26 10.58a2 2 0 0 1 -2 1.78h-11v31.4a1.42 1.42 0 0 1 -1.4 1.43h-11.21a1.42 1.42 0 0 1 -1.4-1.44l.06-31.39h-8.33a2 2 0 0 1 -2-2v-10.58a2 2 0 0 1 2-2h8.28v-10.26c0-11.87 7.06-18.33 17.4-18.33h8.47a2 2 0 0 1 2 2v8.91a2 2 0 0 1 -2 2h-5.19c-5.62.09-6.68 2.78-6.68 6.8v8.85h12.31a2 2 0 0 1 1.95 2.25z" fill="#fff"/></g></g></svg>