<?xml version="1.0" encoding="utf-8"?>
<svg viewBox="0 0 94.191 183.798" xmlns="http://www.w3.org/2000/svg">
  <defs>
    <linearGradient id="a" x1="-6874" x2="-6636" y1="2774" y2="2497" gradientTransform="matrix(.434 -.932 -.932 -.434 6223 -5053)" gradientUnits="userSpaceOnUse">
      <stop offset="0" stop-color="#f59723"/>
      <stop offset="0.312" stop-color="#f69822"/>
      <stop offset="0.838" stop-color="#e87726"/>
    </linearGradient>
    <linearGradient id="b" x1="-8631" x2="-6937" y1="2805" y2="2805" gradientTransform="matrix(.434 -.932 -.932 -.434 6223 -5053)" gradientUnits="userSpaceOnUse">
      <stop offset="0.323" stop-color="#9c2063"/>
      <stop offset="0.63" stop-color="#c82037"/>
      <stop offset="0.751" stop-color="#cc2135"/>
      <stop offset="1" stop-color="#e87726"/>
    </linearGradient>
    <linearGradient id="c" x1="-8426" x2="-7417" y1="2635" y2="2635" gradientTransform="matrix(.434 -.932 -.932 -.434 6223 -5053)" gradientUnits="userSpaceOnUse">
      <stop offset="0" stop-color="#282661"/>
      <stop offset="0.0955" stop-color="#662e8c"/>
      <stop offset="0.788" stop-color="#9e2064"/>
      <stop offset="0.949" stop-color="#cc2032"/>
    </linearGradient>
    <linearGradient id="d" x1="-8536" x2="-6842" y1="2821" y2="2821" gradientTransform="matrix(.434 -.932 -.932 -.434 6223 -5053)" gradientUnits="userSpaceOnUse">
      <stop offset="0.323" stop-color="#9c2063"/>
      <stop offset="0.63" stop-color="#c82037"/>
      <stop offset="0.751" stop-color="#cc2135"/>
      <stop offset="1" stop-color="#e87726"/>
    </linearGradient>
    <linearGradient id="e" x1="-8412" x2="-7522" y1="2798" y2="2798" gradientTransform="matrix(.434 -.932 -.932 -.434 6223 -5053)" gradientUnits="userSpaceOnUse">
      <stop offset="0" stop-color="#282661"/>
      <stop offset="0.0955" stop-color="#662e8c"/>
      <stop offset="0.788" stop-color="#9e2064"/>
      <stop offset="0.949" stop-color="#cc2032"/>
    </linearGradient>
    <linearGradient id="f" x1="-8536" x2="-6842" y1="2645" y2="2645" gradientTransform="matrix(.434 -.932 -.932 -.434 6223 -5053)" gradientUnits="userSpaceOnUse">
      <stop offset="0.323" stop-color="#9c2063"/>
      <stop offset="0.63" stop-color="#c82037"/>
      <stop offset="0.751" stop-color="#cc2135"/>
      <stop offset="1" stop-color="#e87726"/>
    </linearGradient>
    <linearGradient id="g" x1="-8641" x2="-6947" y1="2654" y2="2654" gradientTransform="matrix(.434 -.932 -.932 -.434 6223 -5053)" gradientUnits="userSpaceOnUse">
      <stop offset="0.323" stop-color="#9c2063"/>
      <stop offset="0.63" stop-color="#c82037"/>
      <stop offset="0.751" stop-color="#cc2135"/>
      <stop offset="1" stop-color="#e87726"/>
    </linearGradient>
    <linearGradient id="i" x1="-8536" x2="-6842" y1="2593" y2="2593" gradientTransform="matrix(.434 -.932 -.932 -.434 6223 -5053)" gradientUnits="userSpaceOnUse">
      <stop offset="0.323" stop-color="#9c2063"/>
      <stop offset="0.63" stop-color="#c82037"/>
      <stop offset="0.751" stop-color="#cc2135"/>
      <stop offset="1" stop-color="#e87726"/>
    </linearGradient>
    <linearGradient id="k" x1="-8536" x2="-6842" y1="2599" y2="2599" gradientTransform="matrix(.434 -.932 -.932 -.434 6223 -5053)" gradientUnits="userSpaceOnUse">
      <stop offset="0.323" stop-color="#9c2063"/>
      <stop offset="0.63" stop-color="#c82037"/>
      <stop offset="0.751" stop-color="#cc2135"/>
      <stop offset="1" stop-color="#e87726"/>
    </linearGradient>
    <linearGradient id="m" x1="-7584" x2="-7210" y1="2601" y2="2601" gradientTransform="matrix(.434 -.932 -.932 -.434 6223 -5053)" gradientUnits="userSpaceOnUse">
      <stop offset="0.323" stop-color="#9c2063"/>
      <stop offset="0.63" stop-color="#c82037"/>
      <stop offset="0.751" stop-color="#cc2135"/>
      <stop offset="1" stop-color="#e87726"/>
    </linearGradient>
  </defs>
  <g transform="matrix(0.467, 0, 0, 0.464, -32.619629, -215.853012)">
    <g transform="matrix(.226 0 0 .226 72.2 467)">
      <path fill="url(#a)" d="M736 8.1c-27.1 16-72.2 61.3-126 127l49.3 93.2c34.7-49.5 69.9-94.2 105-132 2.8-3 4.1-4.4 4.1-4.4-1.3 1.4-2.8 3-4.1 4.4-11.5 12.6-46.4 53.4-99 134 50.7-2.5 128-12.9 192-23.7 19-106-18.5-154-18.5-154s-47.6-77-103-44.1z"/>
      <path fill="none" d="M652 540c.3-.1.7-.1 1.1-.2l-7.1.8-1.2.6c2.3-.5 4.8-.9 7.2-1.2zm-50 167c-4 .9-8.1 1.6-12.3 2.3 4.2-.7 8.3-1.5 12.3-2.3zm-343 374c.5-1.3 1-2.8 1.5-4.1 10.9-28.7 21.7-56.6 32.3-83.8 11.9-30.5 23.7-60 35.5-88.6 12.3-30.1 24.5-59.3 36.4-87.5 12.5-29.5 24.9-58 37.1-85.4 9.9-22.3 19.6-43.9 29.2-64.8 3.2-7 6.4-13.9 9.6-20.7 6.3-13.6 12.5-26.8 18.7-39.8 5.7-11.9 11.3-23.6 17-35.2 1.9-3.8 3.7-7.6 5.6-11.4.3-.6.6-1.2.9-1.9l-6.1.6-4.8-9.5c-.5.9-.9 1.9-1.4 2.8-8.6 17.3-17.3 34.6-25.8 52.1-4.9 10.2-9.8 20.4-14.7 30.5-13.5 28.3-26.7 57-39.8 85.6-13.2 29.1-26.1 58.3-38.9 87.6-12.4 28.8-24.7 57.6-36.6 86.3s-23.6 57.3-35 85.6c-11.9 29.6-23.4 59-34.6 88-2.6 6.6-5 13.1-7.6 19.6-9 23.4-17.8 46.6-26.3 69.4l7.6 15 6.8-.7c.2-.7.5-1.3.7-2.1 11.1-29.8 22-59.1 32.7-87.6z"/>
      <path fill="#bd202e" d="M570 791c-6.3 1.1-12.7 2.3-19.4 3.4 0 0-.1 0-.1.1 3.4-.5 6.7-1 10-1.5 3.1-.7 6.3-1.3 9.5-2z"/>
      <path d="M570 791c-6.3 1.1-12.7 2.3-19.4 3.4 0 0-.1 0-.1.1 3.4-.5 6.7-1 10-1.5 3.1-.7 6.3-1.3 9.5-2z"/>
      <path fill="#bd202e" d="M587 710c-.1 0-.1 0-.1.1 1-.1 2.1-.3 3.1-.5 4.2-.6 8.3-1.3 12.3-2.3-5 .9-10 1.8-15.3 2.7z"/>
      <path d="M587 710c-.1 0-.1 0-.1.1 1-.1 2.1-.3 3.1-.5 4.2-.6 8.3-1.3 12.3-2.3-5 .9-10 1.8-15.3 2.7z"/>
      <path fill="url(#b)" d="M514 469c15-28.1 30.2-55.5 45.5-82.1 15.9-27.8 32.1-54.6 48.4-80.6.9-1.5 2-3.1 2.9-4.6 16.1-25.5 32.4-50.1 48.7-73.5L610.2 135c-3.7 4.5-7.4 9.1-11.2 13.9-14.3 17.8-29 36.8-44.2 57.1-17.1 22.8-34.6 47.2-52.5 72.8-16.4 23.6-33.2 48.3-50 74-14.3 21.8-28.5 44.2-42.7 67.2-.5.8-1 1.7-1.5 2.6l64.3 127C486 522.1 500 495.2 514 469z"/>
      <path fill="url(#c)" d="M221 1184c-8.5 23.3-17.1 47.2-25.6 71.5-.1.3-.2.7-.4 1-1.2 3.4-2.5 6.9-3.6 10.3-5.8 16.4-10.8 31.2-22.3 64.7 18.9 8.6 34.1 31.4 48.5 57.2-1.5-26.7-12.5-51.8-33.6-71.2 93.3 4.2 174-19.4 215-87.6 3.7-6.1 7.1-12.4 10.2-19.3-18.9 24-42.4 34.1-86.5 31.7-.1 0-.2.1-.3.1.1 0 .2-.1.3-.1 65-29.1 97.5-57 126-103 6.8-11 13.5-22.9 20.3-36.2-56.8 58.3-122 74.9-192 62.3l-52 5.7c-1.7 4.4-3.2 8.7-4.9 13.1z"/>
      <path fill="url(#d)" d="M246 1068c11.2-29 22.8-58.4 34.6-88 11.4-28.4 23-57 35-85.6s24.2-57.5 36.6-86.3c12.6-29.3 25.6-58.5 38.9-87.6 13.1-28.8 26.3-57.4 39.8-85.6 4.8-10.2 9.8-20.4 14.7-30.5 8.5-17.5 17.1-34.9 25.8-52.1.5-.9.9-1.9 1.4-2.8l-64.3-127c-1 1.7-2.1 3.5-3.2 5.1-15 24.5-29.9 49.5-44.5 75-14.8 25.8-29.3 52.1-43.5 78.8-11.9 22.5-23.6 45.1-35.1 68.1-2.3 4.6-4.5 9.3-6.8 13.9-14 28.9-26.6 56.6-38.1 83.5-13 30.3-24.4 59.3-34.3 86.8-6.6 18.1-12.5 35.5-18 52.3-4.5 14.3-8.7 28.7-12.9 43-9.6 33.6-17.9 67.2-24.7 101l64.6 128c8.5-22.8 17.3-46 26.3-69.4 2.7-6.7 5.1-13.3 7.7-19.7z"/>
      <path fill="url(#e)" d="M146 1034c-8.1 40.8-13.9 81.4-16.8 122l-.3 4.2c-20.2-32.3-74.1-63.8-74-63.5 38.7 56 68 112 72.3 166-20.7 4.2-49-1.9-81.7-13.9 34.1 31.4 59.7 40 69.8 42.4-31.4 2-64 23.5-96.9 48.3 48.1-19.6 87-27.4 115-21.1-44.2 125-88.4 263-133 410 13.6-4 21.7-13.2 26.2-25.5 7.9-26.5 60.2-201 142-429 2.4-6.5 4.7-13.1 7.1-19.6.6-1.9 1.3-3.7 2-5.4 8.6-24 17.7-48.5 26.9-73.5 2.1-5.7 4.2-11.4 6.4-17.1 0-.1.1-.2.1-.3l-64.7-128c-.2 1.3-.5 2.8-.8 4.3z"/>
      <path fill="url(#f)" d="M482 560c-1.9 3.8-3.7 7.6-5.6 11.4-5.6 11.5-11.2 23.2-17 35.2-6.2 13-12.4 26.2-18.7 39.8-3.2 6.8-6.4 13.7-9.6 20.7-9.6 20.9-19.3 42.5-29.2 64.8-12.1 27.3-24.6 55.8-37.1 85.4-11.9 28.2-24.2 57.3-36.4 87.5-11.7 28.6-23.5 58.2-35.5 88.6-10.7 27.1-21.5 55.1-32.3 83.8-.5 1.3-1 2.8-1.5 4.1-10.8 28.5-21.7 57.8-32.6 87.8-.2.7-.5 1.3-.7 2.1l52-5.7c-1-.2-2.1-.3-3.1-.5 62.1-7.7 145-54.2 198-112 24.6-26.4 46.9-57.6 67.5-94.1 15.3-27.1 29.8-57.3 43.6-90.6 12-29.1 23.5-60.7 34.6-94.8-14.3 7.5-30.6 13.1-48.6 16.9-3.2.7-6.4 1.3-9.7 1.9s-6.6 1.1-10 1.5c0 0 .1 0 .1-.1 58-22.3 94.5-65.3 121-118-15.2 10.4-40 24-69.7 30.5-4 .9-8.1 1.6-12.3 2.3-1 .1-2.1.3-3.1.5h.2c20.2-8.4 37.1-17.9 51.8-29 3.2-2.4 6.3-4.8 9.1-7.4 4.5-3.9 8.7-8 12.9-12.2 2.6-2.8 5.1-5.6 7.6-8.5 5.8-6.9 11.2-14.3 16.2-22.3 1.5-2.5 3.1-4.9 4.5-7.5 2-3.7 3.8-7.4 5.6-10.9 8.1-16.2 14.6-30.8 19.7-43.5 2.6-6.4 4.8-12.2 6.8-17.8.8-2.2 1.5-4.3 2.2-6.4 2.1-6.1 3.7-11.5 5-16.3 2-7.2 3.2-12.9 3.8-17-2 1.5-4.2 3.1-6.8 4.6-17.5 10.5-47.5 19.9-71.7 24.4l47.7-5.2-47.7 5.2c-.3.1-.7.1-1.1.2-2.5.4-4.8.8-7.3 1.1l1.2-.6-163 17.9c0 .4-.3 1.1-.6 1.7z"/>
      <path fill="url(#g)" d="M666 230c-14.5 22.3-30.3 47.6-47.5 76.3-.9 1.4-1.9 3.1-2.7 4.5-14.7 24.8-30.3 52-46.9 81.9-14.2 25.8-29 53.4-44.4 83.1-13.4 25.9-27.2 53.4-41.5 82.5l163-17.9c47.6-21.9 68.8-41.6 89.4-70.3 5.4-7.9 11-16.1 16.4-24.7 16.8-26.2 33.2-55 47.9-83.7 14.2-27.7 26.7-55.1 36.3-79.9 6.1-15.7 11-30.3 14.4-43.2 3-11.3 5.3-22.1 7.1-32.4-63.3 10.9-141 21.3-192 23.8z"/>
      <path fill="#bd202e" d="M560 793c-3.3.6-6.6 1.1-10 1.5 3.4-.3 6.8-.9 10-1.5z" transform="matrix(1, 0, 0, 1, 0, 0)"/>
      <path fill="#bd202e" d="M560 793c-3.3.6-6.6 1.1-10 1.5 3.4-.3 6.8-.9 10-1.5z" transform="matrix(1, 0, 0, 1, 0, 0)" opacity=".35"/>
      <path fill="url(#i)" d="M560 793c-3.3.6-6.6 1.1-10 1.5 3.4-.3 6.8-.9 10-1.5z"/>
      <path fill="#bd202e" d="M587 710c1-.1 2.1-.3 3.1-.5-1 .1-2 .4-3.1.5z" transform="matrix(1, 0, 0, 1, 0, 0)"/>
      <path fill="#bd202e" d="M587 710c1-.1 2.1-.3 3.1-.5-1 .1-2 .4-3.1.5z" transform="matrix(1, 0, 0, 1, 0, 0)" opacity=".35"/>
      <path fill="url(#k)" d="M587 710c1-.1 2.1-.3 3.1-.5-1 .1-2 .4-3.1.5z"/>
      <path fill="#bd202e" d="M587 710c.1 0 .1-.1 0 0 .1-.1.1 0 0 0z" transform="matrix(1, 0, 0, 1, 0, 0)"/>
      <path fill="#bd202e" d="M587 710c.1 0 .1-.1 0 0 .1-.1.1 0 0 0z" transform="matrix(1, 0, 0, 1, 0, 0)" opacity=".35"/>
      <path fill="url(#m)" d="M587 710c.1 0 .1-.1 0 0 .1-.1.1 0 0 0z"/>
    </g>
  </g>
</svg>