<svg height="512" viewBox="0 0 152 152" width="512" xmlns="http://www.w3.org/2000/svg" xmlns:xlink="http://www.w3.org/1999/xlink"><linearGradient id="linear-gradient" gradientUnits="userSpaceOnUse" x1="76" x2="76" y1="151.3" y2="10.3"><stop offset="0" stop-color="#e09b3d"/><stop offset=".24" stop-color="#c74c4d"/><stop offset=".65" stop-color="#c21975"/><stop offset="1" stop-color="#7024c4"/></linearGradient><g id="Layer_2" data-name="Layer 2"><g id="_05.instagram" data-name="05.instagram"><circle id="background" cx="76" cy="76" fill="url(#linear-gradient)" r="76"/><g id="icon" fill="#fff"><path d="m91.36 38h-30.72a22.67 22.67 0 0 0 -22.64 22.64v30.72a22.67 22.67 0 0 0 22.64 22.64h30.72a22.66 22.66 0 0 0 22.64-22.64v-30.72a22.67 22.67 0 0 0 -22.64-22.64zm15 53.36a15 15 0 0 1 -15 15h-30.72a15 15 0 0 1 -15-15v-30.72a15 15 0 0 1 15-15h30.72a15 15 0 0 1 15 15z"/><path d="m76 56.35a19.66 19.66 0 1 0 19.65 19.65 19.67 19.67 0 0 0 -19.65-19.65zm0 31.65a12 12 0 1 1 12-12 12 12 0 0 1 -12 12z"/><circle cx="95.77" cy="56.35" r="4.86"/></g></g></g></svg>