<svg height="512" viewBox="0 0 152 152" width="512" xmlns="http://www.w3.org/2000/svg"><g id="Layer_2" data-name="Layer 2"><g id="_77.github" data-name="77.github"><circle id="background" cx="76" cy="76" fill="#4d2a7e" r="76"/><g id="icon" fill="#fff"><path d="m76.92 106.08c11.81 0 28.31.29 34.31-11.72 2.26-4.59 2.77-9.88 2.77-14.88 0-6.57-1.82-12.82-6.18-17.9a23.83 23.83 0 0 0 1.18-7.58c0-3.37-.76-5.06-2.31-8.11-7.09 0-11.69 1.33-17.07 5.51a55.54 55.54 0 0 0 -12.69-1.4 61.3 61.3 0 0 0 -14 1.57c-5.47-4.23-10.06-5.64-17.23-5.64-1.53 3-2.31 4.75-2.31 8.12a24.42 24.42 0 0 0 1.22 7.64 26.77 26.77 0 0 0 -6.61 17.79 33.3 33.3 0 0 0 3.2 14.89c6.24 12.14 23.72 11.71 35.72 11.71zm-16.75-31.63a64.29 64.29 0 0 1 8.87.94c10.82 1.64 16.51-.94 23.14-.94 7.41 0 11.64 6.06 11.64 12.94 0 13.77-12.71 15.87-23.84 15.87h-7.63c-11.09 0-23.82-2.11-23.82-15.87 0-6.88 4.23-12.94 11.64-12.94z"/><path d="m90.74 96c4.09 0 5.81-5.36 5.81-8.64s-1.72-8.64-5.81-8.64-5.81 5.36-5.81 8.64 1.73 8.64 5.81 8.64z"/><path d="m61.65 96c4.09 0 5.82-5.36 5.82-8.64s-1.73-8.63-5.82-8.63-5.81 5.36-5.81 8.63 1.73 8.64 5.81 8.64z"/></g></g></g></svg>