<?xml version="1.0" encoding="utf-8"?>
<svg viewBox="239.71 0 151.29 148.678" xmlns="http://www.w3.org/2000/svg">
  <g transform="matrix(1, 0, 0, 1, 241.589996, -4.64258)" style="fill:#00618a; fill-rule:nonzero; stroke:none; stroke-width:0.87088; stroke-linecap:butt; stroke-linejoin:miter; stroke-dasharray:none;">
    <path d="M135.289 114.997 C127.395 114.783 121.365 115.517 116.21 117.691 C114.745 118.309 112.409 118.325 112.17 120.161 C112.975 121.005 113.1 122.265 113.74 123.303 C114.971 125.295 117.049 127.964 118.903 129.364 C120.929 130.893 123.017 132.529 125.189 133.853 C129.052 136.209 133.365 137.554 137.085 139.914 C139.277 141.305 141.455 143.057 143.594 144.627 C144.651 145.403 145.362 146.61 146.736 147.096 C146.736 147.022 146.736 146.947 146.736 146.872 C146.014 145.953 145.828 144.689 145.165 143.729 C144.193 142.757 143.22 141.784 142.247 140.811 C139.394 137.024 135.772 133.698 131.922 130.935 C128.852 128.731 121.98 125.754 120.699 122.181 C120.624 122.106 120.55 122.031 120.474 121.956 C122.651 121.711 125.2 120.923 127.209 120.385 C130.584 119.48 133.6 119.714 137.085 118.814 C138.656 118.365 140.227 117.915 141.799 117.467 C141.799 117.167 141.799 116.869 141.799 116.569 C140.037 114.761 138.781 112.369 136.86 110.733 C131.834 106.453 126.348 102.177 120.699 98.6114 C117.566 96.6338 113.694 95.3487 110.374 93.6729 C109.257 93.1094 107.295 92.8164 106.557 91.877 C104.813 89.6533 103.863 86.835 102.518 84.2451 C99.7 78.8194 96.933 72.8936 94.437 67.1856 C92.734 63.293 91.622 59.4541 89.499 55.9619 C79.307 39.2051 68.336 29.0908 51.341 19.1494 C47.725 17.0352 43.371 16.2002 38.77 15.1094 C36.302 14.96 33.832 14.8096 31.363 14.6602 C29.856 14.0303 28.288 12.1865 26.874 11.293 C21.244 7.73633 6.803 0 2.633 10.1709 C0 16.5908 6.568 22.8555 8.917 26.1084 C10.566 28.3906 12.677 30.9492 13.855 33.5156 C14.63 35.2022 14.764 36.8936 15.427 38.6787 C17.059 43.0752 18.478 47.8584 20.589 51.9219 C21.656 53.9776 22.832 56.1436 24.181 57.9824 C25.008 59.1104 26.425 59.6074 26.649 61.3496 C25.263 63.2891 25.184 66.2998 24.405 68.7569 C20.897 79.8184 22.22 93.5674 27.323 101.754 C28.889 104.267 32.577 109.657 37.648 107.59 C42.084 105.783 41.093 100.184 42.362 95.2442 C42.649 94.124 42.473 93.3008 43.035 92.5508 C43.035 92.625 43.035 92.7002 43.035 92.7754 C44.382 95.4688 45.729 98.1621 47.076 100.855 C50.066 105.671 55.373 110.704 59.87 114.1 C62.202 115.861 64.038 118.906 67.053 119.936 C67.053 119.861 67.053 119.787 67.053 119.711 C66.977 119.711 66.903 119.711 66.828 119.711 C66.244 118.8 65.33 118.423 64.584 117.691 C62.827 115.969 60.874 113.828 59.421 111.855 C55.331 106.302 51.716 100.224 48.423 93.8975 C46.85 90.877 45.483 87.544 44.157 84.4697 C43.646 83.2842 43.652 81.4922 42.587 80.878 C41.135 83.1309 38.996 84.9522 37.873 87.6123 C36.077 91.8643 35.845 97.0498 35.18 102.427 C34.786 102.568 34.961 102.471 34.73 102.651 C31.604 101.897 30.505 98.6787 29.344 95.918 C26.405 88.9356 25.859 77.6924 28.445 69.6553 C29.114 67.5762 32.138 61.0264 30.914 59.1055 C30.33 57.1885 28.402 56.0801 27.323 54.6153 C25.988 52.8047 24.655 50.4209 23.731 48.3301 C21.326 42.8858 20.203 36.7744 17.671 31.2715 C16.461 28.6406 14.414 25.9785 12.733 23.6397 C10.872 21.0489 8.788 19.1406 7.346 16.0069 C6.833 14.8936 6.136 13.1113 6.897 11.9668 C7.139 11.1943 7.48 10.8721 8.244 10.6201 C9.546 9.61621 13.172 10.9541 14.528 11.5176 C18.128 13.0127 21.132 14.4365 24.181 16.4561 C25.645 17.4268 27.125 19.3037 28.894 19.8233 C29.567 19.8233 30.241 19.8233 30.914 19.8233 C34.074 20.5498 37.614 20.0489 40.566 20.9453 C45.784 22.5313 50.46 24.9981 54.707 27.6797 C67.645 35.8487 78.223 47.4776 85.459 61.3496 C86.623 63.583 87.127 65.7149 88.152 68.084 C90.221 72.8614 92.827 77.7774 94.885 82.4492 C96.939 87.1104 98.941 91.8145 101.844 95.6934 C103.371 97.7324 109.266 98.8262 111.945 99.958 C113.823 100.752 116.9 101.579 118.679 102.651 C122.077 104.701 125.369 107.141 128.556 109.386 C130.149 110.508 135.045 112.969 135.289 114.997 Z"/>
  </g>
  <g transform="matrix(1, 0, 0, 1, 272.503998, 24.8027)" style="fill:#00618a; fill-rule:evenodd; stroke:none; stroke-width:0.87088; stroke-linecap:butt; stroke-linejoin:miter; stroke-dasharray:none;">
    <path d="M4.041 0.0303 C2.395 0 1.231 0.21 0 0.4786 C0 0.5537 0 0.6289 0 0.7032 C0.075 0.7032 0.15 0.7032 0.225 0.7032 C1.01 2.3164 2.396 3.3545 3.367 4.7442 C4.115 6.3155 4.863 7.8868 5.612 9.4571 C5.686 9.3828 5.762 9.3077 5.836 9.2334 C7.226 8.2539 7.863 6.6866 7.856 4.295 C7.299 3.709 7.217 2.9737 6.734 2.2744 C6.092 1.3428 4.85 0.8135 4.041 0.0303 Z"/>
  </g>
</svg>